o naoLHipRoll.mesh.0.NaoMat_Structure.obj


# Vertices
v -0.0427 -0.0111533 0.0130264
vn 0.0 -0.65799 0.753026
v -0.0427 -0.0136511 0.0101987
vn 0.0 -0.935274 0.353925
v 0.0086 -0.0136511 0.0101987
vn 0.0 -0.935274 0.353925
v 0.0086 -0.0111533 0.0130264
vn 0.0 -0.65799 0.753026
v -0.0427 -0.00582562 0.0165862
vn 0.0 -0.382682 0.92388
v 0.0086 -0.00582562 0.0165862
vn 0.0 -0.382682 0.92388
v -0.0427 0.000458811 0.0178362
vn 0.0 0.0 1.0
v 0.0086 0.000458808 0.0178362
vn 0.0 0.0 1.0
v -0.0427 0.00674324 0.0165862
vn 0.0 0.382682 0.92388
v 0.0086 0.00674324 0.0165862
vn 0.0 0.382682 0.92388
v -0.0427 0.0120709 0.0130264
vn 0.0 0.65799 0.753026
v 0.0086 0.0120709 0.0130264
vn 0.0 0.65799 0.753026
v -0.0427 0.0145687 0.0101987
vn 0.0 0.935274 0.353925
v 0.0086 0.0145687 0.0101987
vn 0.0 0.935274 0.353925
v -0.0427 -0.0136511 -0.0164013
vn 0.0 -0.999307 -0.037233
v 0.0086 -0.0136511 -0.0164013
vn 0.000153 -0.999504 -0.031496
v 0.0086 0.0145687 -0.0164013
vn 0.000153 0.999504 -0.031496
v -0.0427 0.0145687 -0.0164013
vn 0.0 0.999307 -0.037233
v -0.0241831 0.0125588 -0.0238688
vn -0.630094 0.365159 -0.685303
v -0.0270967 0.0125588 -0.0202735
vn -0.409812 0.416191 -0.811689
v -0.0270967 0.0144588 -0.0178735
vn -0.320998 0.742555 -0.587855
v -0.0241831 0.0144588 -0.0214688
vn -0.499819 0.679091 -0.537602
v -0.0130878 0.0125588 -0.0312824
vn -0.350514 0.419183 -0.837511
v -0.0130878 0.0144588 -0.0288825
vn -0.255141 0.758097 -0.60016
v -1e-09 0.0125588 -0.0338858
vn 0.0 0.438071 -0.89894
v -1e-09 0.0144588 -0.0314858
vn 0.0 0.784045 -0.620705
v 0.0130878 0.0125588 -0.0312824
vn 0.350514 0.419183 -0.837511
v 0.0130878 0.0144588 -0.0288825
vn 0.255141 0.758097 -0.60016
v 0.0241831 0.0125588 -0.0238688
vn 0.775065 0.289535 -0.561644
v 0.0241831 0.0144588 -0.0214688
vn 0.831595 0.435452 -0.344718
v -0.0426967 0.0125588 -0.0202735
vn 0.0 0.43548 -0.900198
v -0.0426967 0.0144588 -0.0178735
vn 0.0 0.784045 -0.620705
v -0.0241831 0.0144588 -0.0214688
vn 0.0 1.0 0.0
v 0.0130878 0.0144588 -0.0288825
vn 0.0 1.0 0.0
v -1e-09 0.0144588 -0.0314858
vn 0.0 1.0 0.0
v -0.0130878 0.0144588 -0.0288825
vn 0.0 1.0 0.0
v -0.0270967 0.0144588 -0.0178735
vn 0.000153 0.999504 -0.031496
v 0.0241831 0.0144588 -0.0214688
vn 0.000244 0.99995 -0.00998
v -0.0426967 0.0144588 -0.0178735
vn 0.0 0.997226 -0.074435
v -0.0426967 -0.0116412 -0.0202735
vn 0.0 -0.43548 -0.900198
v -0.0270967 -0.0116412 -0.0202735
vn -0.409812 -0.416191 -0.811689
v -0.0270967 -0.0135412 -0.0178735
vn -0.320998 -0.742555 -0.587855
v -0.0426967 -0.0135412 -0.0178735
vn 0.0 -0.784045 -0.620705
v 0.0241831 -0.0116412 -0.0238688
vn 0.775065 -0.289535 -0.561644
v 0.0241831 -0.0135412 -0.0214688
vn 0.831595 -0.435452 -0.344718
v 0.0130878 -0.0135412 -0.0288825
vn 0.255141 -0.758097 -0.60016
v 0.0130878 -0.0116412 -0.0312824
vn 0.350514 -0.419183 -0.837511
v -2e-09 -0.0135412 -0.0314858
vn 0.0 -0.784045 -0.620705
v -2e-09 -0.0116412 -0.0338857
vn 0.0 -0.438047 -0.898952
v -0.0130878 -0.0135412 -0.0288825
vn -0.255141 -0.758097 -0.60016
v -0.0130878 -0.0116412 -0.0312824
vn -0.350514 -0.419183 -0.837511
v -0.0241831 -0.0135412 -0.0214688
vn -0.499819 -0.679091 -0.537602
v -0.0241831 -0.0116412 -0.0238688
vn -0.630094 -0.365159 -0.685303
v -0.0426967 -0.0135412 -0.0178735
vn 0.0 -0.997226 -0.074435
v -0.0270967 -0.0135412 -0.0178735
vn 0.000153 -0.999504 -0.031496
v -2e-09 -0.0135412 -0.0314858
vn 0.0 -1.0 0.0
v 0.0130878 -0.0135412 -0.0288825
vn 0.0 -1.0 0.0
v -0.0241831 -0.0135412 -0.0214688
vn 0.0 -1.0 0.0
v -0.0130878 -0.0135412 -0.0288825
vn 0.0 -1.0 0.0
v 0.0241831 -0.0135412 -0.0214688
vn 0.000244 -0.99995 -0.00998
v -0.0426967 0.0125588 -0.0202735
vn -1.0 0.0 0.0
v -0.0426967 -0.0116412 -0.0202735
vn -1.0 0.0 0.0
v -0.0426967 -0.0135412 -0.0178735
vn -0.999999 0.0 -0.001099
v -0.0426967 0.0144588 -0.0178735
vn -0.999999 0.0 -0.001099
v -0.0427 -0.0136511 -0.0164013
vn -0.999999 0.0 -0.001099
v -0.0427 0.0145687 -0.0164013
vn -0.999999 0.0 -0.001099
v -0.0427 -0.0136511 0.0101987
vn -1.0 0.0 0.0
v -0.0427 0.0145687 0.0101987
vn -1.0 0.0 0.0
v -0.0427 -0.0111533 0.0130264
vn -1.0 0.0 0.0
v -0.0427 0.0120709 0.0130264
vn -1.0 0.0 0.0
v -0.0427 -0.00582562 0.0165862
vn -1.0 0.0 0.0
v -0.0427 0.00674324 0.0165862
vn -1.0 0.0 0.0
v -0.0427 0.000458811 0.0178362
vn -1.0 0.0 0.0
v 0.0086 -0.0136511 0.0101987
vn 1.0 0.0 0.0
v 0.0086 -0.0136511 -0.0164013
vn 1.0 0.0 0.0
v 0.0086 0.0145687 -0.0164013
vn 1.0 0.0 0.0
v 0.0086 0.0145687 0.0101987
vn 1.0 0.0 0.0
v 0.0086 0.0120709 0.0130264
vn 1.0 0.0 0.0
v 0.0086 -0.0111533 0.0130264
vn 1.0 0.0 0.0
v 0.0086 0.00674324 0.0165862
vn 1.0 0.0 0.0
v 0.0086 -0.00582562 0.0165862
vn 1.0 0.0 0.0
v 0.0086 0.000458808 0.0178362
vn 1.0 0.0 0.0
v 0.0241831 -0.0135412 -0.0214688
vn 1.0 0.0 0.0
v 0.0241831 0.0144588 -0.0214688
vn 1.0 0.0 0.0
v 0.0241831 0.0144588 -0.0164688
vn 1.0 0.0 0.0
v 0.0241831 -0.0135412 -0.0164688
vn 1.0 0.0 0.0
v 0.0086 -0.0136511 -0.0164013
vn 0.004303 0.0 0.999991
v 0.0241831 -0.0135412 -0.0164688
vn 0.004303 0.0 0.999991
v 0.0241831 0.0144588 -0.0164688
vn 0.004303 0.0 0.999991
v 0.0086 0.0145687 -0.0164013
vn 0.004303 0.0 0.999991
v 0.0241831 -0.0135412 -0.0164688
vn 0.000519 -0.9998 -0.01999
v 0.0241831 0.0144588 -0.0164688
vn 0.000519 0.9998 -0.01999


# Faces
f 1//1 2//2 4//4
f 2//2 3//3 4//4
f 5//5 1//1 6//6
f 1//1 4//4 6//6
f 7//7 5//5 8//8
f 5//5 6//6 8//8
f 9//9 7//7 10//10
f 7//7 8//8 10//10
f 11//11 9//9 12//12
f 9//9 10//10 12//12
f 13//13 11//11 14//14
f 11//11 12//12 14//14
f 3//3 2//2 15//15
f 3//3 15//15 16//16
f 13//13 14//14 18//18
f 14//14 17//17 18//18
f 19//19 20//20 22//22
f 20//20 21//21 22//22
f 23//23 19//19 24//24
f 19//19 22//22 24//24
f 25//25 23//23 26//26
f 23//23 24//24 26//26
f 27//27 25//25 26//26
f 27//27 26//26 28//28
f 29//29 27//27 28//28
f 29//29 28//28 30//30
f 21//21 20//20 32//32
f 20//20 31//31 32//32
f 33//33 34//34 35//35
f 33//33 35//35 36//36
f 33//33 37//37 34//34
f 37//37 38//38 34//34
f 17//17 37//37 18//18
f 37//37 39//39 18//18
f 40//40 41//41 43//43
f 41//41 42//42 43//43
f 44//44 45//45 46//46
f 44//44 46//46 47//47
f 47//47 46//46 48//48
f 47//47 48//48 49//49
f 49//49 48//48 51//51
f 48//48 50//50 51//51
f 51//51 50//50 53//53
f 50//50 52//52 53//53
f 53//53 52//52 41//41
f 52//52 42//42 41//41
f 23//23 25//25 49//49
f 23//23 49//49 51//51
f 25//25 27//27 49//49
f 27//27 47//47 49//49
f 27//27 29//29 44//44
f 27//27 44//44 47//47
f 19//19 23//23 51//51
f 19//19 51//51 53//53
f 20//20 19//19 53//53
f 20//20 53//53 41//41
f 20//20 41//41 31//31
f 41//41 40//40 31//31
f 15//15 54//54 55//55
f 15//15 55//55 16//16
f 56//56 57//57 58//58
f 56//56 58//58 59//59
f 55//55 58//58 57//57
f 55//55 57//57 60//60
f 61//61 62//62 63//63
f 61//61 63//63 64//64
f 65//65 66//66 64//64
f 65//65 64//64 63//63
f 67//67 68//68 65//65
f 68//68 66//66 65//65
f 67//67 69//69 70//70
f 67//67 70//70 68//68
f 69//69 71//71 70//70
f 71//71 72//72 70//70
f 71//71 73//73 72//72
f 74//74 75//75 76//76
f 74//74 76//76 77//77
f 74//74 77//77 78//78
f 74//74 78//78 79//79
f 79//79 78//78 81//81
f 78//78 80//80 81//81
f 81//81 80//80 82//82
f 29//29 30//30 44//44
f 30//30 45//45 44//44
f 83//83 84//84 86//86
f 84//84 85//85 86//86
f 87//87 88//88 89//89
f 87//87 89//89 90//90
f 55//55 60//60 16//16
f 60//60 91//91 16//16
f 37//37 17//17 38//38
f 17//17 92//92 38//38
