o naoRHipRoll.mesh.0.NaoMat_Structure.obj


# Vertices
v -0.0427 0.0122077 0.0121009
vn 0.0 0.65799 0.753026
v 0.0086 0.0122077 0.0121009
vn 0.0 0.65799 0.753026
v 0.0086 0.0147055 0.00927323
vn 0.0 0.935274 0.353925
v -0.0427 0.0147055 0.00927323
vn 0.0 0.935274 0.353925
v -0.0427 0.00688005 0.0156608
vn 0.0 0.382682 0.92388
v 0.0086 0.00688006 0.0156607
vn 0.0 0.382682 0.92388
v -0.0427 0.000595627 0.0169108
vn 0.0 0.0 1.0
v 0.0086 0.000595631 0.0169108
vn 0.0 0.0 1.0
v -0.0427 -0.0056888 0.0156608
vn 0.0 -0.382682 0.92388
v 0.0086 -0.0056888 0.0156608
vn 0.0 -0.382682 0.92388
v -0.0427 -0.0110165 0.0121009
vn 0.0 -0.65799 0.753026
v 0.0086 -0.0110165 0.0121009
vn 0.0 -0.65799 0.753026
v -0.0427 -0.0135143 0.00927323
vn 0.0 -0.935274 0.353925
v 0.0086 -0.0135143 0.00927323
vn 0.0 -0.935274 0.353925
v 0.0086 0.0147055 -0.0173268
vn 0.000153 0.999504 -0.031496
v -0.0427 0.0147055 -0.0173268
vn 0.0 0.999307 -0.037233
v -0.0427 -0.0135143 -0.0173268
vn 0.0 -0.999307 -0.037233
v 0.0086 -0.0135143 -0.0173268
vn 0.000153 -0.999504 -0.031496
v -0.0270967 -0.0134044 -0.018799
vn -0.320998 -0.742555 -0.587855
v -0.0270967 -0.0115044 -0.021199
vn -0.409812 -0.416191 -0.811689
v -0.0241831 -0.0115044 -0.0247942
vn -0.630094 -0.365159 -0.685303
v -0.0241831 -0.0134044 -0.0223942
vn -0.499819 -0.679091 -0.537602
v -0.0130878 -0.0115044 -0.0322079
vn -0.350514 -0.419183 -0.837511
v -0.0130878 -0.0134044 -0.0298079
vn -0.255141 -0.758097 -0.60016
v -1e-09 -0.0115044 -0.0348112
vn 0.0 -0.438047 -0.898952
v -1e-09 -0.0134044 -0.0324112
vn 0.0 -0.784045 -0.620705
v 0.0130878 -0.0115044 -0.0322079
vn 0.350514 -0.419183 -0.837511
v 0.0130878 -0.0134044 -0.0298079
vn 0.255141 -0.758097 -0.60016
v 0.0241831 -0.0115044 -0.0247942
vn 0.775065 -0.289535 -0.561644
v 0.0241831 -0.0134044 -0.0223942
vn 0.831595 -0.435452 -0.344718
v -0.0426967 -0.0115044 -0.021199
vn 0.0 -0.43548 -0.900198
v -0.0426967 -0.0134044 -0.018799
vn 0.0 -0.784045 -0.620705
v -0.0241831 -0.0134044 -0.0223942
vn 0.0 -1.0 0.0
v -0.0130878 -0.0134044 -0.0298079
vn 0.0 -1.0 0.0
v -1e-09 -0.0134044 -0.0324112
vn 0.0 -1.0 0.0
v 0.0130878 -0.0134044 -0.0298079
vn 0.0 -1.0 0.0
v 0.0241831 -0.0134044 -0.0223942
vn 0.000244 -0.99995 -0.00998
v -0.0270967 -0.0134044 -0.018799
vn 0.000153 -0.999504 -0.031496
v -0.0426967 -0.0134044 -0.018799
vn 0.0 -0.997226 -0.074435
v -0.0426967 0.0126956 -0.021199
vn 0.0 0.43548 -0.900198
v -0.0426967 0.0145956 -0.018799
vn 0.0 0.784045 -0.620705
v -0.0270967 0.0145956 -0.018799
vn -0.320998 0.742555 -0.587855
v -0.0270967 0.0126956 -0.021199
vn -0.409812 0.416191 -0.811689
v 0.0241831 0.0126956 -0.0247942
vn 0.775065 0.289535 -0.561644
v 0.0130878 0.0126956 -0.0322079
vn 0.350514 0.419183 -0.837511
v 0.0130878 0.0145956 -0.0298079
vn 0.255141 0.758097 -0.60016
v 0.0241831 0.0145956 -0.0223942
vn 0.831595 0.435452 -0.344718
v -2e-09 0.0126956 -0.0348112
vn 0.0 0.438047 -0.898952
v -2e-09 0.0145956 -0.0324112
vn 0.0 0.784045 -0.620705
v -0.0130878 0.0126956 -0.0322079
vn -0.350514 0.419183 -0.837511
v -0.0130878 0.0145956 -0.0298079
vn -0.255141 0.758097 -0.60016
v -0.0241831 0.0126956 -0.0247942
vn -0.630094 0.365159 -0.685303
v -0.0241831 0.0145956 -0.0223942
vn -0.499819 0.679091 -0.537602
v -0.0270967 0.0145956 -0.018799
vn 0.000153 0.999504 -0.031496
v -0.0426967 0.0145956 -0.018799
vn 0.0 0.997226 -0.074435
v -2e-09 0.0145956 -0.0324112
vn 0.0 1.0 0.0
v -0.0130878 0.0145956 -0.0298079
vn 0.0 1.0 0.0
v -0.0241831 0.0145956 -0.0223942
vn 0.0 1.0 0.0
v 0.0130878 0.0145956 -0.0298079
vn 0.0 1.0 0.0
v 0.0241831 0.0145956 -0.0223942
vn 0.000244 0.99995 -0.00998
v -0.0426967 -0.0115044 -0.021199
vn -1.0 0.0 0.0
v -0.0426967 -0.0134044 -0.018799
vn -0.999999 0.0 -0.001099
v -0.0426967 0.0145956 -0.018799
vn -0.999999 0.0 -0.001099
v -0.0426967 0.0126956 -0.021199
vn -1.0 0.0 0.0
v -0.0427 0.0147055 -0.0173268
vn -0.999999 0.0 -0.001099
v -0.0427 -0.0135143 -0.0173268
vn -0.999999 0.0 -0.001099
v -0.0427 0.0147055 0.00927323
vn -1.0 0.0 0.0
v -0.0427 -0.0135143 0.00927323
vn -1.0 0.0 0.0
v -0.0427 -0.0110165 0.0121009
vn -1.0 0.0 0.0
v -0.0427 0.0122077 0.0121009
vn -1.0 0.0 0.0
v -0.0427 -0.0056888 0.0156608
vn -1.0 0.0 0.0
v -0.0427 0.00688005 0.0156608
vn -1.0 0.0 0.0
v -0.0427 0.000595627 0.0169108
vn -1.0 0.0 0.0
v 0.0086 0.0147055 0.00927323
vn 1.0 0.0 0.0
v 0.0086 -0.0135143 0.00927323
vn 1.0 0.0 0.0
v 0.0086 -0.0135143 -0.0173268
vn 1.0 0.0 0.0
v 0.0086 0.0147055 -0.0173268
vn 1.0 0.0 0.0
v 0.0086 0.0122077 0.0121009
vn 1.0 0.0 0.0
v 0.0086 -0.0110165 0.0121009
vn 1.0 0.0 0.0
v 0.0086 0.00688006 0.0156607
vn 1.0 0.0 0.0
v 0.0086 -0.0056888 0.0156608
vn 1.0 0.0 0.0
v 0.0086 0.000595631 0.0169108
vn 1.0 0.0 0.0
v 0.0241831 0.0145956 -0.0223942
vn 1.0 0.0 0.0
v 0.0241831 0.0145956 -0.0173942
vn 1.0 0.0 0.0
v 0.0241831 -0.0134044 -0.0173942
vn 1.0 0.0 0.0
v 0.0241831 -0.0134044 -0.0223942
vn 1.0 0.0 0.0
v 0.0086 0.0147055 -0.0173268
vn 0.004303 0.0 0.999991
v 0.0086 -0.0135143 -0.0173268
vn 0.004303 0.0 0.999991
v 0.0241831 -0.0134044 -0.0173942
vn 0.004303 0.0 0.999991
v 0.0241831 0.0145956 -0.0173942
vn 0.004303 0.0 0.999991
v 0.0241831 0.0145956 -0.0173942
vn 0.000519 0.9998 -0.01999
v 0.0241831 -0.0134044 -0.0173942
vn 0.000519 -0.9998 -0.01999


# Faces
f 1//1 2//2 4//4
f 2//2 3//3 4//4
f 2//2 1//1 6//6
f 1//1 5//5 6//6
f 7//7 8//8 5//5
f 8//8 6//6 5//5
f 9//9 10//10 7//7
f 10//10 8//8 7//7
f 11//11 12//12 9//9
f 12//12 10//10 9//9
f 13//13 14//14 11//11
f 14//14 12//12 11//11
f 3//3 15//15 4//4
f 15//15 16//16 4//4
f 13//13 17//17 14//14
f 17//17 18//18 14//14
f 19//19 20//20 22//22
f 20//20 21//21 22//22
f 23//23 24//24 21//21
f 24//24 22//22 21//21
f 25//25 26//26 23//23
f 26//26 24//24 23//23
f 27//27 28//28 26//26
f 27//27 26//26 25//25
f 29//29 30//30 28//28
f 29//29 28//28 27//27
f 31//31 20//20 19//19
f 31//31 19//19 32//32
f 33//33 34//34 35//35
f 33//33 35//35 36//36
f 33//33 36//36 38//38
f 36//36 37//37 38//38
f 18//18 17//17 38//38
f 17//17 39//39 38//38
f 40//40 41//41 42//42
f 40//40 42//42 43//43
f 44//44 45//45 46//46
f 44//44 46//46 47//47
f 45//45 48//48 49//49
f 45//45 49//49 46//46
f 48//48 50//50 49//49
f 50//50 51//51 49//49
f 50//50 52//52 51//51
f 52//52 53//53 51//51
f 52//52 43//43 53//53
f 43//43 42//42 53//53
f 23//23 50//50 25//25
f 50//50 48//48 25//25
f 25//25 48//48 45//45
f 25//25 45//45 27//27
f 27//27 45//45 44//44
f 27//27 44//44 29//29
f 21//21 52//52 50//50
f 21//21 50//50 23//23
f 20//20 43//43 52//52
f 20//20 52//52 21//21
f 20//20 31//31 43//43
f 31//31 40//40 43//43
f 16//16 15//15 54//54
f 16//16 54//54 55//55
f 56//56 57//57 58//58
f 56//56 58//58 59//59
f 54//54 60//60 59//59
f 54//54 59//59 58//58
f 61//61 62//62 64//64
f 62//62 63//63 64//64
f 65//65 63//63 62//62
f 65//65 62//62 66//66
f 67//67 65//65 66//66
f 67//67 66//66 68//68
f 67//67 68//68 69//69
f 67//67 69//69 70//70
f 70//70 69//69 72//72
f 69//69 71//71 72//72
f 72//72 71//71 73//73
f 74//74 75//75 77//77
f 75//75 76//76 77//77
f 74//74 78//78 79//79
f 74//74 79//79 75//75
f 78//78 80//80 79//79
f 80//80 81//81 79//79
f 80//80 82//82 81//81
f 29//29 44//44 47//47
f 29//29 47//47 30//30
f 83//83 84//84 86//86
f 84//84 85//85 86//86
f 87//87 88//88 89//89
f 87//87 89//89 90//90
f 54//54 15//15 60//60
f 15//15 91//91 60//60
f 38//38 37//37 18//18
f 37//37 92//92 18//18
